<svg xmlns="http://www.w3.org/2000/svg" width="400" height="400" viewBox="0 0 400 400"><linearGradient id="gradient-201212734" x1="5.857864376269051" y1="5.857864376269049" x2="34.14213562373095" y2="34.14213562373095" gradientUnits="userSpaceOnUse"><stop offset="0%" stop-color="hsl(255,100%,50%)"/><stop offset="100%" stop-color="hsl(255,100%,50%)"/></linearGradient><linearGradient id="gradient-3847986232" x1="5.857864376269051" y1="5.857864376269049" x2="34.14213562373095" y2="34.14213562373095" gradientUnits="userSpaceOnUse"><stop offset="0%" stop-color="hsl(284.71,100%,20%)"/><stop offset="100%" stop-color="hsl(284.71,100%,20%)"/></linearGradient><linearGradient id="gradient-222985140" x1="5.857864376269051" y1="5.857864376269049" x2="34.14213562373095" y2="34.14213562373095" gradientUnits="userSpaceOnUse"><stop offset="0%" stop-color="hsl(0,0%,20.15%)"/><stop offset="10%" stop-color="hsl(0,0%,19.43%)"/><stop offset="25%" stop-color="hsl(0,0%,18.23%)"/><stop offset="37%" stop-color="hsl(0,0%,18.71%)"/><stop offset="50%" stop-color="hsl(0,0%,19.19%)"/><stop offset="5.01%" stop-color="hsl(0,0%,18.31%)"/><stop offset="83%" stop-color="hsl(0,0%,19.59%)"/><stop offset="100%" stop-color="hsl(0,0%,20.23%)"/></linearGradient><linearGradient id="gradient-2938184419" x1="5.857864376269051" y1="5.857864376269049" x2="34.14213562373095" y2="34.14213562373095" gradientUnits="userSpaceOnUse"><stop offset="0%" stop-color="hsl(254.4,96.15%,20.39%)"/><stop offset="100%" stop-color="hsl(254.4,96.15%,20.39%)"/></linearGradient><linearGradient id="gradient-1712531199" x1="3.5147186257614305" y1="3.5147186257614287" x2="20.48528137423857" y2="20.485281374238568" gradientUnits="userSpaceOnUse"><stop offset="0%" stop-color="hsl(0,0%,100%)"/><stop offset="100%" stop-color="hsl(0,0%,100%)"/></linearGradient><linearGradient id="gradient-2233916572" x1="3.5147186257614305" y1="3.5147186257614287" x2="20.48528137423857" y2="20.485281374238568" gradientUnits="userSpaceOnUse"><stop offset="0%" stop-color="hsl(239.12,91.89%,88.4%)"/><stop offset="10%" stop-color="hsl(241.62,75.63%,84.55%)"/><stop offset="25%" stop-color="hsl(245,61.35%,78.08%)"/><stop offset="37%" stop-color="hsl(245.33,68.5%,79.09%)"/><stop offset="50%" stop-color="hsl(245.63,76.36%,80.1%)"/><stop offset="5.01%" stop-color="hsl(244.92,70.52%,72.34%)"/><stop offset="83%" stop-color="hsl(234.22,80.66%,83.78%)"/><stop offset="100%" stop-color="hsl(224.06,94.11%,89.35%)"/></linearGradient><metadata>{"content":{"iconName":"gamepad-variant","shapeName":"circle"},"style":{"iconFillStyle":{"baseColor":"rgb(153,153,153)","gradientDef":"FF0000+0,FF0000+100","gradientZoom":1,"options":{"angle":135,"type":"linear"},"strokeWidth":1},"iconScale":1.1,"iconStrokeStyle":{"baseColor":"rgb(92,92,153)","gradientDef":"https://colorzilla.com/gradient-editor/#b8e1fc+0,a9d2f3+10,90bae4+25,90bcea+37,90bff0+50,6ba8e5+5.01,a2daf5+83,bdf3fd+100","gradientZoom":1,"options":{"angle":135,"type":"linear"},"strokeWidth":0},"shapeInnerFillStyle":{"baseColor":"rgb(26,26,26)","gradientDef":"https://colorzilla.com/gradient-editor/#b8e1fc+0,a9d2f3+10,90bae4+25,90bcea+37,90bff0+50,6ba8e5+5.01,a2daf5+83,bdf3fd+100","gradientZoom":1,"options":{"angle":135,"type":"linear"},"strokeWidth":1},"shapeInnerStrokeStyle":{"baseColor":"rgb(32,26,51)","gradientDef":"FF0000+0,FF0000+100","gradientZoom":1,"options":{"angle":135,"type":"linear"},"strokeWidth":0.4},"shapeOuterFillStyle":{"baseColor":"rgb(80,64,128)","gradientDef":"FF0000+0,FF0000+100","gradientZoom":1,"options":{"angle":135,"type":"linear"},"strokeWidth":1},"shapeOuterStrokeStyle":{"baseColor":"rgb(38,0,51)","gradientDef":"FF0000+0,FF0000+100","gradientZoom":1,"options":{"angle":135,"type":"linear"},"strokeWidth":0}}}</metadata><svg xmlns="http://www.w3.org/2000/svg" viewBox="0 0 40 40" width="400" height="400" style="overflow: visible;" y="0" x="0">
	<circle cx="20" cy="20" r="18" fill="#9fa0a4" style="fill: url(&quot;#gradient-201212734&quot;); stroke-width: 0px; stroke: url(&quot;#gradient-3847986232&quot;); stroke-linecap: round; stroke-linejoin: round;"/>
	<path d="M20 34.4C12 34.4 5.6 28 5.6 20S12 5.6 20 5.6 34.4 12 34.4 20 28 34.4 20 34.4z" fill="none" stroke="#fff" stroke-width="1.001" stroke-miterlimit="10" style="fill: url(&quot;#gradient-222985140&quot;); stroke-width: 0.64px; stroke: url(&quot;#gradient-2938184419&quot;); stroke-linecap: round; stroke-linejoin: round;"/>
</svg><svg xmlns="http://www.w3.org/2000/svg" xmlns:xlink="http://www.w3.org/1999/xlink" version="1.1" id="mdi-gamepad-variant" width="165" height="165" viewBox="0 0 24 24" style="overflow: visible;" y="117.5" x="117.5"><path d="M 7 6 H 17 A 6 6 0 0 1 23 12 A 6 6 0 0 1 17 18 C 15.22 18 13.63 17.23 12.53 16 H 11.47 C 10.37 17.23 8.78 18 7 18 A 6 6 0 0 1 1 12 A 6 6 0 0 1 7 6 Z M 6 9 V 11 H 4 V 13 H 6 V 15 H 8 V 13 H 10 V 11 H 8 V 9 H 6 Z M 15.5 12 A 1.5 1.5 0 0 0 14 13.5 A 1.5 1.5 0 0 0 15.5 15 A 1.5 1.5 0 0 0 17 13.5 A 1.5 1.5 0 0 0 15.5 12 Z M 18.5 9 A 1.5 1.5 0 0 0 17 10.5 A 1.5 1.5 0 0 0 18.5 12 A 1.5 1.5 0 0 0 20 10.5 A 1.5 1.5 0 0 0 18.5 9 Z" style="fill: url(&quot;#gradient-1712531199&quot;); stroke-width: 0px; stroke: url(&quot;#gradient-2233916572&quot;); stroke-linecap: round; stroke-linejoin: round;"/><path d="M 7 6 H 17 A 6 6 0 0 1 23 12 A 6 6 0 0 1 17 18 C 15.22 18 13.63 17.23 12.53 16 H 11.47 C 10.37 17.23 8.78 18 7 18 A 6 6 0 0 1 1 12 A 6 6 0 0 1 7 6 Z M 6 9 V 11 H 4 V 13 H 6 V 15 H 8 V 13 H 10 V 11 H 8 V 9 H 6 Z M 15.5 12 A 1.5 1.5 0 0 0 14 13.5 A 1.5 1.5 0 0 0 15.5 15 A 1.5 1.5 0 0 0 17 13.5 A 1.5 1.5 0 0 0 15.5 12 Z M 18.5 9 A 1.5 1.5 0 0 0 17 10.5 A 1.5 1.5 0 0 0 18.5 12 A 1.5 1.5 0 0 0 20 10.5 A 1.5 1.5 0 0 0 18.5 9 Z" style="fill: url(&quot;#gradient-1712531199&quot;);"/></svg></svg>